<svg width="228" height="81" viewBox="0 0 228 81" fill="none" xmlns="http://www.w3.org/2000/svg">
<path d="M42.9 55.62C42.9 60.3 41.31 64.23 38.13 67.41C34.95 70.53 30.84 72.36 25.8 72.9V81H20.4V72.99C15.54 72.69 11.4 71.4 7.98 69.12C4.56 66.84 2.1 63.78 0.6 59.94L6 56.79C8.22 62.91 13.02 66.27 20.4 66.87V42.03C17.7 41.07 15.51 40.2 13.83 39.42C12.21 38.64 10.53 37.59 8.79 36.27C7.05 34.95 5.76 33.33 4.92 31.41C4.14 29.49 3.75 27.24 3.75 24.66C3.75 19.98 5.31 16.17 8.43 13.23C11.61 10.23 15.6 8.49 20.4 8.01V-1.07288e-06H25.8V8.1C29.34 8.52 32.49 9.72 35.25 11.7C38.01 13.68 40.11 16.35 41.55 19.71L36.24 22.68C34.32 17.88 30.84 15.09 25.8 14.31V37.71C28.44 38.61 30.63 39.48 32.37 40.32C34.11 41.16 35.85 42.27 37.59 43.65C39.39 45.03 40.71 46.71 41.55 48.69C42.45 50.67 42.9 52.98 42.9 55.62ZM10.05 24.66C10.05 27.42 10.89 29.61 12.57 31.23C14.25 32.85 16.86 34.35 20.4 35.73V14.22C17.28 14.58 14.76 15.69 12.84 17.55C10.98 19.35 10.05 21.72 10.05 24.66ZM25.8 66.78C29.16 66.3 31.8 65.07 33.72 63.09C35.64 61.11 36.6 58.62 36.6 55.62C36.6 52.68 35.7 50.37 33.9 48.69C32.1 46.95 29.4 45.36 25.8 43.92V66.78ZM93.7124 35.19C98.7524 35.85 102.892 37.8 106.132 41.04C109.432 44.22 111.082 48.45 111.082 53.73C111.082 59.73 109.012 64.47 104.872 67.95C100.792 71.37 95.8124 73.08 89.9324 73.08C85.2524 73.08 81.0824 72 77.4224 69.84C73.7624 67.68 71.1824 64.59 69.6824 60.57L74.9024 57.51C75.9224 60.63 77.7524 63 80.3924 64.62C83.0324 66.18 86.2124 66.96 89.9324 66.96C94.2524 66.96 97.7924 65.82 100.552 63.54C103.372 61.2 104.782 57.93 104.782 53.73C104.782 49.53 103.372 46.29 100.552 44.01C97.7924 41.67 94.2524 40.5 89.9324 40.5V40.41L89.8424 40.5H88.1324L85.4324 36.36L101.092 14.94H71.4824V9H108.382V14.94L93.7124 35.19ZM159.607 64.26C155.467 70.14 149.617 73.08 142.057 73.08C134.497 73.08 128.617 70.14 124.417 64.26C120.277 58.32 118.207 50.4 118.207 40.5C118.207 30.6 120.277 22.71 124.417 16.83C128.617 10.89 134.497 7.92 142.057 7.92C149.617 7.92 155.467 10.89 159.607 16.83C163.807 22.71 165.907 30.6 165.907 40.5C165.907 50.4 163.807 58.32 159.607 64.26ZM129.097 60.03C132.217 64.65 136.537 66.96 142.057 66.96C147.577 66.96 151.867 64.65 154.927 60.03C158.047 55.41 159.607 48.9 159.607 40.5C159.607 32.1 158.047 25.59 154.927 20.97C151.867 16.35 147.577 14.04 142.057 14.04C136.537 14.04 132.217 16.35 129.097 20.97C126.037 25.59 124.507 32.1 124.507 40.5C124.507 48.9 126.037 55.41 129.097 60.03ZM188.516 61.74C189.636 61.74 190.543 62.1067 191.236 62.84C191.93 63.56 192.276 64.54 192.276 65.78V72H190.536V65.84C190.536 65.0667 190.336 64.4667 189.936 64.04C189.536 63.6133 189.003 63.4 188.336 63.4C187.59 63.4 186.99 63.6533 186.536 64.16C186.096 64.6533 185.876 65.4133 185.876 66.44V72H184.136V65.84C184.136 65.0667 183.943 64.4667 183.556 64.04C183.183 63.6133 182.67 63.4 182.016 63.4C181.283 63.4 180.67 63.6533 180.176 64.16C179.696 64.6667 179.456 65.4267 179.456 66.44V72H177.716V62H179.456V63.34C180.136 62.2733 181.13 61.74 182.436 61.74C183.783 61.74 184.763 62.3067 185.376 63.44C186.07 62.3067 187.116 61.74 188.516 61.74ZM194.569 60.18C194.236 60.18 193.956 60.0667 193.729 59.84C193.502 59.6133 193.389 59.34 193.389 59.02C193.389 58.7 193.502 58.4267 193.729 58.2C193.956 57.96 194.236 57.84 194.569 57.84C194.889 57.84 195.162 57.96 195.389 58.2C195.616 58.4267 195.729 58.7 195.729 59.02C195.729 59.34 195.616 59.6133 195.389 59.84C195.162 60.0667 194.889 60.18 194.569 60.18ZM193.689 72V62H195.429V72H193.689ZM197.084 72V57.4H198.824V72H197.084ZM200.478 72V57.4H202.218V72H200.478ZM204.753 60.18C204.419 60.18 204.139 60.0667 203.913 59.84C203.686 59.6133 203.573 59.34 203.573 59.02C203.573 58.7 203.686 58.4267 203.913 58.2C204.139 57.96 204.419 57.84 204.753 57.84C205.073 57.84 205.346 57.96 205.573 58.2C205.799 58.4267 205.913 58.7 205.913 59.02C205.913 59.34 205.799 59.6133 205.573 59.84C205.346 60.0667 205.073 60.18 204.753 60.18ZM203.873 72V62H205.613V72H203.873ZM215.707 70.74C214.681 71.7533 213.434 72.26 211.967 72.26C210.501 72.26 209.254 71.7533 208.227 70.74C207.214 69.7267 206.707 68.48 206.707 67C206.707 65.52 207.214 64.2733 208.227 63.26C209.254 62.2467 210.501 61.74 211.967 61.74C213.434 61.74 214.681 62.2467 215.707 63.26C216.734 64.2733 217.247 65.52 217.247 67C217.247 68.48 216.734 69.7267 215.707 70.74ZM211.967 70.56C212.967 70.56 213.807 70.22 214.487 69.54C215.167 68.86 215.507 68.0133 215.507 67C215.507 65.9867 215.167 65.14 214.487 64.46C213.807 63.78 212.967 63.44 211.967 63.44C210.981 63.44 210.147 63.78 209.467 64.46C208.787 65.14 208.447 65.9867 208.447 67C208.447 68.0133 208.787 68.86 209.467 69.54C210.147 70.22 210.981 70.56 211.967 70.56ZM223.279 61.74C224.452 61.74 225.392 62.1133 226.099 62.86C226.805 63.5933 227.159 64.5933 227.159 65.86V72H225.419V65.96C225.419 65.1467 225.199 64.52 224.759 64.08C224.319 63.6267 223.712 63.4 222.939 63.4C222.072 63.4 221.372 63.6733 220.839 64.22C220.305 64.7533 220.039 65.58 220.039 66.7V72H218.299V62H220.039V63.44C220.745 62.3067 221.825 61.74 223.279 61.74Z" fill="url(#paint0_linear)"/>
<defs>
<linearGradient id="paint0_linear" x1="47.8226" y1="-57.1361" x2="-7.44194" y2="126.202" gradientUnits="userSpaceOnUse">
<stop stop-color="#16B4EB"/>
<stop offset="1" stop-color="#23E73C"/>
</linearGradient>
</defs>
</svg>
