<svg width="145" height="66" viewBox="0 0 145 66" fill="none" xmlns="http://www.w3.org/2000/svg">
<path d="M17 2H22.4V65H16.1V8.93L1.97 13.16L0.35 7.76L17 2ZM32.1859 65V59.33L54.8659 36.47C61.3459 29.99 64.5859 24.44 64.5859 19.82C64.5859 15.8 63.3259 12.68 60.8059 10.46C58.3459 8.18 55.3759 7.04 51.8959 7.04C45.4159 7.04 40.7059 10.01 37.7659 15.95L32.4559 12.8C34.4359 8.9 37.1359 5.96 40.5559 3.98C43.9759 1.94 47.7559 0.919999 51.8959 0.919999C56.9359 0.919999 61.3459 2.63 65.1259 6.05C68.9659 9.41 70.8859 14 70.8859 19.82C70.8859 23.48 69.8659 26.99 67.8259 30.35C65.7859 33.71 62.9059 37.25 59.1859 40.97L41.1859 58.88H72.2359V65H32.1859ZM93.9911 54.74C95.1111 54.74 96.0178 55.1067 96.7111 55.84C97.4044 56.56 97.7511 57.54 97.7511 58.78V65H96.0111V58.84C96.0111 58.0667 95.8111 57.4667 95.4111 57.04C95.0111 56.6133 94.4778 56.4 93.8111 56.4C93.0644 56.4 92.4644 56.6533 92.0111 57.16C91.5711 57.6533 91.3511 58.4133 91.3511 59.44V65H89.6111V58.84C89.6111 58.0667 89.4178 57.4667 89.0311 57.04C88.6578 56.6133 88.1444 56.4 87.4911 56.4C86.7578 56.4 86.1444 56.6533 85.6511 57.16C85.1711 57.6667 84.9311 58.4267 84.9311 59.44V65H83.1911V55H84.9311V56.34C85.6111 55.2733 86.6044 54.74 87.9111 54.74C89.2578 54.74 90.2378 55.3067 90.8511 56.44C91.5444 55.3067 92.5911 54.74 93.9911 54.74ZM107.604 63.74C106.577 64.7533 105.33 65.26 103.864 65.26C102.397 65.26 101.15 64.7533 100.124 63.74C99.1104 62.7267 98.6038 61.48 98.6038 60C98.6038 58.52 99.1104 57.2733 100.124 56.26C101.15 55.2467 102.397 54.74 103.864 54.74C105.33 54.74 106.577 55.2467 107.604 56.26C108.63 57.2733 109.144 58.52 109.144 60C109.144 61.48 108.63 62.7267 107.604 63.74ZM103.864 63.56C104.864 63.56 105.704 63.22 106.384 62.54C107.064 61.86 107.404 61.0133 107.404 60C107.404 58.9867 107.064 58.14 106.384 57.46C105.704 56.78 104.864 56.44 103.864 56.44C102.877 56.44 102.044 56.78 101.364 57.46C100.684 58.14 100.344 58.9867 100.344 60C100.344 61.0133 100.684 61.86 101.364 62.54C102.044 63.22 102.877 63.56 103.864 63.56ZM115.175 54.74C116.348 54.74 117.288 55.1133 117.995 55.86C118.702 56.5933 119.055 57.5933 119.055 58.86V65H117.315V58.96C117.315 58.1467 117.095 57.52 116.655 57.08C116.215 56.6267 115.608 56.4 114.835 56.4C113.968 56.4 113.268 56.6733 112.735 57.22C112.202 57.7533 111.935 58.58 111.935 59.7V65H110.195V55H111.935V56.44C112.642 55.3067 113.722 54.74 115.175 54.74ZM125.924 56.68H123.264V62.1C123.264 62.5933 123.357 62.9467 123.544 63.16C123.744 63.36 124.044 63.4667 124.444 63.48C124.844 63.48 125.337 63.4667 125.924 63.44V65C124.404 65.2 123.291 65.08 122.584 64.64C121.877 64.1867 121.524 63.34 121.524 62.1V56.68H119.544V55H121.524V52.72L123.264 52.2V55H125.924V56.68ZM131.964 54.74C133.137 54.74 134.077 55.1133 134.784 55.86C135.491 56.5933 135.844 57.5933 135.844 58.86V65H134.104V58.96C134.104 58.1467 133.884 57.52 133.444 57.08C133.004 56.6267 132.397 56.4 131.624 56.4C130.757 56.4 130.057 56.6733 129.524 57.22C128.991 57.7533 128.724 58.58 128.724 59.7V65H126.984V51H128.724V56.44C129.431 55.3067 130.511 54.74 131.964 54.74ZM138.773 57.7C138.773 58.0867 138.966 58.4 139.353 58.64C139.74 58.8667 140.206 59.0533 140.753 59.2C141.3 59.3333 141.846 59.4933 142.393 59.68C142.94 59.8533 143.406 60.16 143.793 60.6C144.18 61.0267 144.373 61.58 144.373 62.26C144.373 63.1667 144.02 63.8933 143.313 64.44C142.62 64.9867 141.726 65.26 140.633 65.26C139.66 65.26 138.826 65.0467 138.133 64.62C137.44 64.1933 136.946 63.6267 136.653 62.92L138.153 62.06C138.313 62.54 138.613 62.92 139.053 63.2C139.493 63.48 140.02 63.62 140.633 63.62C141.206 63.62 141.68 63.5133 142.053 63.3C142.426 63.0733 142.613 62.7267 142.613 62.26C142.613 61.8733 142.42 61.5667 142.033 61.34C141.646 61.1 141.18 60.9133 140.633 60.78C140.086 60.6333 139.54 60.4667 138.993 60.28C138.446 60.0933 137.98 59.7867 137.593 59.36C137.206 58.9333 137.013 58.3867 137.013 57.72C137.013 56.8533 137.346 56.14 138.013 55.58C138.693 55.02 139.54 54.74 140.553 54.74C141.366 54.74 142.086 54.9267 142.713 55.3C143.353 55.66 143.833 56.1667 144.153 56.82L142.693 57.64C142.333 56.7867 141.62 56.36 140.553 56.36C140.06 56.36 139.64 56.48 139.293 56.72C138.946 56.9467 138.773 57.2733 138.773 57.7Z" fill="url(#paint0_linear)"/>
<defs>
<linearGradient id="paint0_linear" x1="142.288" y1="-45.7992" x2="46.9155" y2="115.357" gradientUnits="userSpaceOnUse">
<stop stop-color="#309AFF"/>
<stop offset="0.287496" stop-color="#309AFF"/>
<stop offset="0.651175" stop-color="#5364AE"/>
<stop offset="1" stop-color="#70366B" stop-opacity="0.01"/>
</linearGradient>
</defs>
</svg>
