<svg width="18" height="17" viewBox="0 0 18 17" fill="none" xmlns="http://www.w3.org/2000/svg">
<path fill-rule="evenodd" clip-rule="evenodd" d="M0.16669 8.4999C0.16669 9.0728 0.63544 9.5416 1.20835 9.5416H16.8334C17.4063 9.5416 17.875 9.0728 17.875 8.4999C17.875 7.927 17.4063 7.4583 16.8334 7.4583H1.20835C0.63544 7.4583 0.16669 7.927 0.16669 8.4999ZM8.5 1.20825C8.5 1.78117 8.9688 2.24992 9.5417 2.24992H16.8334C17.4063 2.24992 17.875 1.78117 17.875 1.20825C17.875 0.63534 17.4063 0.16659 16.8334 0.16659H9.5417C8.9688 0.16659 8.5 0.63534 8.5 1.20825ZM5.37502 16.8333C4.8021 16.8333 4.33335 16.3645 4.33335 15.7916C4.33335 15.2187 4.8021 14.7499 5.37502 14.7499H16.8334C17.4063 14.7499 17.875 15.2187 17.875 15.7916C17.875 16.3645 17.4063 16.8333 16.8334 16.8333H5.37502Z" fill="#231F20"/>
<mask id="mask0" mask-type="alpha" maskUnits="userSpaceOnUse" x="0" y="0" width="18" height="17">
<path fill-rule="evenodd" clip-rule="evenodd" d="M0.16669 8.4999C0.16669 9.0728 0.63544 9.5416 1.20835 9.5416H16.8334C17.4063 9.5416 17.875 9.0728 17.875 8.4999C17.875 7.927 17.4063 7.4583 16.8334 7.4583H1.20835C0.63544 7.4583 0.16669 7.927 0.16669 8.4999ZM8.5 1.20825C8.5 1.78117 8.9688 2.24992 9.5417 2.24992H16.8334C17.4063 2.24992 17.875 1.78117 17.875 1.20825C17.875 0.63534 17.4063 0.16659 16.8334 0.16659H9.5417C8.9688 0.16659 8.5 0.63534 8.5 1.20825ZM5.37502 16.8333C4.8021 16.8333 4.33335 16.3645 4.33335 15.7916C4.33335 15.2187 4.8021 14.7499 5.37502 14.7499H16.8334C17.4063 14.7499 17.875 15.2187 17.875 15.7916C17.875 16.3645 17.4063 16.8333 16.8334 16.8333H5.37502Z" fill="white"/>
</mask>
<g mask="url(#mask0)">
<path d="M-4 -4L-4 21H21V-4H-4Z" fill="white"/>
</g>
</svg>
