<svg width="8" height="8" viewBox="0 0 8 8" fill="none" xmlns="http://www.w3.org/2000/svg">
<path fill-rule="evenodd" clip-rule="evenodd" d="M4.90649 4.00001L7.6584 1.24809C7.90905 0.997446 7.90905 0.592318 7.6584 0.341677C7.40775 0.0910358 7.00265 0.0910358 6.752 0.341677L4.00009 3.0936L1.24816 0.341677C0.99752 0.0910358 0.592393 0.0910358 0.341752 0.341677C0.0911111 0.592318 0.0911111 0.997446 0.341752 1.24809L3.09367 4.00001L0.341752 6.75194C0.0911111 7.00258 0.0911111 7.40769 0.341752 7.65834C0.466752 7.78332 0.630856 7.84615 0.794954 7.84615C0.959059 7.84615 1.12316 7.78332 1.24816 7.65834L4.00009 4.90642L6.752 7.65834C6.87699 7.78332 7.04111 7.84615 7.20523 7.84615C7.36929 7.84615 7.53342 7.78332 7.6584 7.65834C7.90905 7.40769 7.90905 7.00258 7.6584 6.75194L4.90649 4.00001Z" fill="white"/>
</svg>
