<svg width="213" height="72" viewBox="0 0 213 72" fill="none" xmlns="http://www.w3.org/2000/svg">
<g filter="url(#filter0_d)">
<rect x="23" y="18" width="25" height="25" rx="0.910004" fill="url(#paint0_linear)"/>
</g>
<g filter="url(#filter1_d)">
<circle cx="48.0202" cy="19.3025" r="10.3025" stroke="white" stroke-width="2"/>
</g>
<path d="M82.282 31.656V28.536H87.43V37.714C84.9513 38.1127 82.9407 38.312 81.398 38.312C78.642 38.312 76.744 37.5753 75.704 36.102C74.6813 34.6287 74.17 32.2887 74.17 29.082C74.17 25.8753 74.7073 23.5613 75.782 22.14C76.8567 20.7187 78.6853 20.008 81.268 20.008C82.88 20.008 84.622 20.19 86.494 20.554L87.43 20.736L87.326 23.518C85.246 23.2927 83.5387 23.18 82.204 23.18C80.8867 23.18 79.9593 23.336 79.422 23.648C78.8847 23.96 78.486 24.5407 78.226 25.39C77.9833 26.222 77.862 27.6607 77.862 29.706C77.862 31.734 78.1133 33.1553 78.616 33.97C79.1187 34.7847 80.1587 35.192 81.736 35.192L83.894 35.088V31.656H82.282ZM92.3665 32.982C92.3839 33.7793 92.5919 34.36 92.9905 34.724C93.4065 35.0707 93.9959 35.244 94.7585 35.244C96.3705 35.244 97.8092 35.192 99.0745 35.088L99.8025 35.01L99.8545 37.584C97.8612 38.0693 96.0585 38.312 94.4465 38.312C92.4879 38.312 91.0665 37.792 90.1825 36.752C89.2985 35.712 88.8565 34.022 88.8565 31.682C88.8565 27.0193 90.7719 24.688 94.6025 24.688C98.3812 24.688 100.271 26.6467 100.271 30.564L100.011 32.982H92.3665ZM96.8385 30.33C96.8385 29.29 96.6739 28.5707 96.3445 28.172C96.0152 27.756 95.4345 27.548 94.6025 27.548C93.7879 27.548 93.2072 27.7647 92.8605 28.198C92.5312 28.614 92.3579 29.3247 92.3405 30.33H96.8385ZM105.244 38H101.76V25H105.218V25.728C106.397 25.0347 107.48 24.688 108.468 24.688C110.202 24.688 111.398 25.1993 112.056 26.222C112.715 27.2447 113.044 28.822 113.044 30.954V38H109.56V31.058C109.56 29.9487 109.43 29.134 109.17 28.614C108.91 28.0767 108.39 27.808 107.61 27.808C106.9 27.808 106.215 27.9293 105.556 28.172L105.244 28.276V38ZM117.992 32.982C118.009 33.7793 118.217 34.36 118.616 34.724C119.032 35.0707 119.621 35.244 120.384 35.244C121.996 35.244 123.434 35.192 124.7 35.088L125.428 35.01L125.48 37.584C123.486 38.0693 121.684 38.312 120.072 38.312C118.113 38.312 116.692 37.792 115.808 36.752C114.924 35.712 114.482 34.022 114.482 31.682C114.482 27.0193 116.397 24.688 120.228 24.688C124.006 24.688 125.896 26.6467 125.896 30.564L125.636 32.982H117.992ZM122.464 30.33C122.464 29.29 122.299 28.5707 121.97 28.172C121.64 27.756 121.06 27.548 120.228 27.548C119.413 27.548 118.832 27.7647 118.486 28.198C118.156 28.614 117.983 29.3247 117.966 30.33H122.464ZM136.719 28.25C134.57 27.9727 133.062 27.834 132.195 27.834C131.346 27.834 130.791 27.912 130.531 28.068C130.289 28.224 130.167 28.4753 130.167 28.822C130.167 29.1513 130.332 29.3853 130.661 29.524C131.008 29.6453 131.875 29.836 133.261 30.096C134.665 30.3387 135.662 30.746 136.251 31.318C136.841 31.89 137.135 32.8173 137.135 34.1C137.135 36.908 135.393 38.312 131.909 38.312C130.765 38.312 129.379 38.156 127.749 37.844L126.917 37.688L127.021 34.776C129.171 35.0533 130.661 35.192 131.493 35.192C132.343 35.192 132.915 35.114 133.209 34.958C133.521 34.7847 133.677 34.5333 133.677 34.204C133.677 33.8747 133.513 33.632 133.183 33.476C132.871 33.32 132.039 33.1293 130.687 32.904C129.353 32.6787 128.356 32.2973 127.697 31.76C127.039 31.2227 126.709 30.2693 126.709 28.9C126.709 27.5133 127.177 26.4733 128.113 25.78C129.049 25.0693 130.254 24.714 131.727 24.714C132.75 24.714 134.145 24.8787 135.913 25.208L136.771 25.364L136.719 28.25ZM138.649 38V25H142.133V38H138.649ZM138.649 23.336V19.8H142.133V23.336H138.649ZM153.686 28.25C151.537 27.9727 150.029 27.834 149.162 27.834C148.313 27.834 147.758 27.912 147.498 28.068C147.256 28.224 147.134 28.4753 147.134 28.822C147.134 29.1513 147.299 29.3853 147.628 29.524C147.975 29.6453 148.842 29.836 150.228 30.096C151.632 30.3387 152.629 30.746 153.218 31.318C153.808 31.89 154.102 32.8173 154.102 34.1C154.102 36.908 152.36 38.312 148.876 38.312C147.732 38.312 146.346 38.156 144.716 37.844L143.884 37.688L143.988 34.776C146.138 35.0533 147.628 35.192 148.46 35.192C149.31 35.192 149.882 35.114 150.176 34.958C150.488 34.7847 150.644 34.5333 150.644 34.204C150.644 33.8747 150.48 33.632 150.15 33.476C149.838 33.32 149.006 33.1293 147.654 32.904C146.32 32.6787 145.323 32.2973 144.664 31.76C144.006 31.2227 143.676 30.2693 143.676 28.9C143.676 27.5133 144.144 26.4733 145.08 25.78C146.016 25.0693 147.221 24.714 148.694 24.714C149.717 24.714 151.112 24.8787 152.88 25.208L153.738 25.364L153.686 28.25ZM166.146 38H156.266V19.93H157.878V36.544H166.146V38ZM176.39 28.874V35.842C176.459 36.4833 177.023 36.8647 178.08 36.986L178.002 38.234C176.667 38.234 175.688 37.8873 175.064 37.194C173.435 37.9047 171.805 38.26 170.176 38.26C169.015 38.26 168.131 37.9307 167.524 37.272C166.917 36.596 166.614 35.6427 166.614 34.412C166.614 33.164 166.917 32.2453 167.524 31.656C168.148 31.0493 169.119 30.6767 170.436 30.538L174.856 30.096V28.874C174.856 27.9033 174.639 27.21 174.206 26.794C173.79 26.3607 173.227 26.144 172.516 26.144C171.407 26.144 169.968 26.248 168.2 26.456L167.394 26.534L167.316 25.286C169.223 24.922 170.887 24.74 172.308 24.74C173.747 24.74 174.787 25.078 175.428 25.754C176.069 26.43 176.39 27.47 176.39 28.874ZM168.226 34.308C168.226 36.0587 168.945 36.934 170.384 36.934C171.008 36.934 171.693 36.8647 172.438 36.726C173.183 36.57 173.773 36.414 174.206 36.258L174.856 36.024V31.318L170.618 31.76C169.769 31.8293 169.153 32.072 168.772 32.488C168.408 32.904 168.226 33.5107 168.226 34.308ZM185.011 24.74C186.744 24.74 187.949 25.2427 188.625 26.248C189.301 27.2533 189.639 28.9953 189.639 31.474C189.639 33.9353 189.205 35.686 188.339 36.726C187.489 37.7487 185.895 38.26 183.555 38.26C182.584 38.26 181.423 38.1907 180.071 38.052L179.395 38V19.228H180.955V25.702C182.307 25.0607 183.659 24.74 185.011 24.74ZM180.955 36.7C182.168 36.804 183.139 36.856 183.867 36.856C184.612 36.856 185.279 36.752 185.869 36.544C186.458 36.336 186.909 35.9893 187.221 35.504C187.55 35.0013 187.767 34.438 187.871 33.814C187.975 33.1727 188.027 32.332 188.027 31.292C188.027 29.4547 187.801 28.1373 187.351 27.34C186.917 26.5427 186.094 26.144 184.881 26.144C184.291 26.144 183.667 26.222 183.009 26.378C182.35 26.5167 181.839 26.664 181.475 26.82L180.955 27.028V36.7Z" fill="white" fill-opacity="0.95"/>
<defs>
<filter id="filter0_d" x="0.249893" y="0.709919" width="70.5002" height="70.5002" filterUnits="userSpaceOnUse" color-interpolation-filters="sRGB">
<feFlood flood-opacity="0" result="BackgroundImageFix"/>
<feColorMatrix in="SourceAlpha" type="matrix" values="0 0 0 0 0 0 0 0 0 0 0 0 0 0 0 0 0 0 127 0"/>
<feOffset dy="5.46003"/>
<feGaussianBlur stdDeviation="11.3751"/>
<feColorMatrix type="matrix" values="0 0 0 0 0.602048 0 0 0 0 0.949963 0 0 0 0 0.930168 0 0 0 0.355129 0"/>
<feBlend mode="normal" in2="BackgroundImageFix" result="effect1_dropShadow"/>
<feBlend mode="normal" in="SourceGraphic" in2="effect1_dropShadow" result="shape"/>
</filter>
<filter id="filter1_d" x="28.5277" y="5.26999" width="38.985" height="38.985" filterUnits="userSpaceOnUse" color-interpolation-filters="sRGB">
<feFlood flood-opacity="0" result="BackgroundImageFix"/>
<feColorMatrix in="SourceAlpha" type="matrix" values="0 0 0 0 0 0 0 0 0 0 0 0 0 0 0 0 0 0 127 0"/>
<feOffset dy="5.46003"/>
<feGaussianBlur stdDeviation="4.09502"/>
<feColorMatrix type="matrix" values="0 0 0 0 0.0944005 0 0 0 0 0.0811398 0 0 0 0 0.223693 0 0 0 1 0"/>
<feBlend mode="normal" in2="BackgroundImageFix" result="effect1_dropShadow"/>
<feBlend mode="normal" in="SourceGraphic" in2="effect1_dropShadow" result="shape"/>
</filter>
<linearGradient id="paint0_linear" x1="12.8139" y1="11.75" x2="0.313912" y2="57.1222" gradientUnits="userSpaceOnUse">
<stop stop-color="#86E3FF"/>
<stop offset="1" stop-color="#4CFA9D"/>
</linearGradient>
</defs>
</svg>
