<svg width="60" height="60" viewBox="0 0 60 60" fill="none" xmlns="http://www.w3.org/2000/svg">
<rect width="60" height="60" rx="9" fill="url(#paint0_linear)"/>
<path d="M20.53 36H14.77V25.725H16.435V34.515H20.53V36ZM22.4983 33.825C22.8383 34.415 23.4883 34.71 24.4483 34.71C25.4083 34.71 26.0533 34.42 26.3833 33.84C26.7233 33.26 26.8933 32.29 26.8933 30.93C26.8933 29.56 26.7183 28.565 26.3683 27.945C26.0283 27.325 25.3883 27.015 24.4483 27.015C23.5083 27.015 22.8633 27.325 22.5133 27.945C22.1633 28.565 21.9883 29.555 21.9883 30.915C21.9883 32.265 22.1583 33.235 22.4983 33.825ZM27.6883 34.905C27.0783 35.745 25.9983 36.165 24.4483 36.165C22.8983 36.165 21.8133 35.745 21.1933 34.905C20.5733 34.055 20.2633 32.725 20.2633 30.915C20.2633 29.105 20.5733 27.76 21.1933 26.88C21.8233 26 22.9083 25.56 24.4483 25.56C25.9883 25.56 27.0683 26 27.6883 26.88C28.3083 27.75 28.6183 29.095 28.6183 30.915C28.6183 32.735 28.3083 34.065 27.6883 34.905ZM33.7421 32.07V30.6H36.6671V35.82C36.3971 35.89 35.8471 35.965 35.0171 36.045C34.1971 36.125 33.6021 36.165 33.2321 36.165C31.6721 36.165 30.5971 35.735 30.0071 34.875C29.4171 34.015 29.1221 32.67 29.1221 30.84C29.1221 29 29.4221 27.66 30.0221 26.82C30.6321 25.98 31.6821 25.56 33.1721 25.56C34.0521 25.56 35.0421 25.66 36.1421 25.86L36.6671 25.965L36.6071 27.285C35.3971 27.125 34.3121 27.045 33.3521 27.045C32.3921 27.045 31.7321 27.315 31.3721 27.855C31.0221 28.395 30.8471 29.395 30.8471 30.855C30.8471 32.315 31.0121 33.325 31.3421 33.885C31.6821 34.435 32.3621 34.71 33.3821 34.71C34.1121 34.71 34.6571 34.665 35.0171 34.575V32.07H33.7421ZM39.5413 33.825C39.8813 34.415 40.5313 34.71 41.4913 34.71C42.4513 34.71 43.0963 34.42 43.4263 33.84C43.7663 33.26 43.9363 32.29 43.9363 30.93C43.9363 29.56 43.7613 28.565 43.4113 27.945C43.0713 27.325 42.4313 27.015 41.4913 27.015C40.5513 27.015 39.9063 27.325 39.5563 27.945C39.2063 28.565 39.0313 29.555 39.0313 30.915C39.0313 32.265 39.2013 33.235 39.5413 33.825ZM44.7313 34.905C44.1213 35.745 43.0413 36.165 41.4913 36.165C39.9413 36.165 38.8563 35.745 38.2363 34.905C37.6163 34.055 37.3063 32.725 37.3063 30.915C37.3063 29.105 37.6163 27.76 38.2363 26.88C38.8663 26 39.9513 25.56 41.4913 25.56C43.0313 25.56 44.1113 26 44.7313 26.88C45.3513 27.75 45.6613 29.095 45.6613 30.915C45.6613 32.735 45.3513 34.065 44.7313 34.905Z" fill="white" fill-opacity="0.5"/>
<defs>
<linearGradient id="paint0_linear" x1="13.1438" y1="-26.3635" x2="-39.5832" y2="52.8029" gradientUnits="userSpaceOnUse">
<stop stop-color="#16B4EB"/>
<stop offset="1" stop-color="#23E73C"/>
</linearGradient>
</defs>
</svg>
