<svg width="78" height="64" viewBox="0 0 78 64" fill="none" xmlns="http://www.w3.org/2000/svg">
<path d="M51.7809 1.01376V1H55.3445L56.6465 1.26149C57.5146 1.43125 58.3027 1.65372 59.0108 1.92897C59.719 2.20422 60.4043 2.52537 61.0667 2.89234C61.7292 3.25932 62.33 3.63325 62.8691 4.01398C63.4037 4.39018 63.8834 4.78929 64.3083 5.21132C64.7285 5.63796 65.3841 5.74806 66.275 5.54162C67.1659 5.33518 68.1253 5.04844 69.1533 4.68146C70.1812 4.31449 71.1978 3.90161 72.2029 3.44284C73.208 2.98407 73.8203 2.69279 74.0396 2.56892C74.2543 2.44052 74.3685 2.37171 74.3822 2.36249L74.3959 2.34184L74.4644 2.30744L74.5329 2.27303L74.6014 2.23862L74.67 2.20422L74.6837 2.18357L74.7042 2.16981L74.7249 2.15605L74.7385 2.13541L74.807 2.11476L74.8756 2.101L74.8619 2.20422L74.8413 2.30744L74.807 2.41065L74.7728 2.51387L74.7385 2.58269L74.7042 2.6515L74.67 2.75472C74.6472 2.82353 74.6243 2.91526 74.6014 3.02997C74.5786 3.14468 74.3616 3.60338 73.9504 4.40622C73.5392 5.20905 73.0253 6.02331 72.4085 6.84906C71.7917 7.67481 71.2389 8.29866 70.7501 8.72075C70.2567 9.14739 69.93 9.44556 69.7701 9.61532C69.6102 9.78962 69.416 9.95016 69.1876 10.097L68.8449 10.3241L68.7764 10.3585L68.7078 10.3929L68.6942 10.4135L68.6736 10.4273L68.653 10.4411L68.6393 10.4617L68.5708 10.4961L68.5023 10.5305L68.4886 10.5512L68.468 10.5649L68.4474 10.5787L68.4337 10.5993L68.4201 10.62L68.3995 10.6337L68.3789 10.6475L68.3652 10.6681H68.7078L70.6267 10.2553C71.9059 9.98002 73.128 9.64745 74.2931 9.25749L76.1434 8.63818L76.349 8.56937L76.4518 8.53496L76.5203 8.50055L76.5888 8.46615L76.6574 8.43174L76.7259 8.39734L76.8629 8.37669L77 8.36293V8.50055L76.9657 8.51432L76.9315 8.53496L76.9178 8.55561L76.8972 8.56937L76.8766 8.58313L76.8629 8.60377L76.8493 8.62442L76.8287 8.63818L76.8081 8.65194L76.7944 8.67259L76.7808 8.69323L76.7601 8.70699L76.7259 8.7758L76.6916 8.84462L76.6711 8.85838C76.6619 8.87214 76.3719 9.26203 75.8007 10.0282C75.2297 10.7989 74.9213 11.1888 74.8756 11.198C74.8299 11.2118 74.7659 11.2806 74.6837 11.4044C74.606 11.5328 74.1217 12.0444 73.2308 12.939C72.3399 13.8335 71.4674 14.6294 70.6131 15.3267C69.7542 16.0286 69.3201 16.8911 69.311 17.9141C69.2973 18.9325 69.2447 20.084 69.1533 21.3685C69.0619 22.653 68.8906 24.0407 68.6393 25.5316C68.3881 27.0226 67.9997 28.7085 67.4743 30.5893C66.949 32.4702 66.3093 34.3052 65.5555 36.0943C64.8016 37.8835 64.0135 39.4891 63.1912 40.9112C62.3688 42.3334 61.615 43.5376 60.9297 44.5239C60.2444 45.5102 59.5477 46.4391 58.8395 47.3108C58.1314 48.1824 57.236 49.1642 56.1532 50.2559C55.0658 51.3432 54.4719 51.9396 54.3714 52.0451C54.2663 52.146 53.8186 52.5222 53.0281 53.1736C52.2424 53.8296 51.3971 54.4856 50.4925 55.1416C49.5925 55.7931 48.7656 56.3367 48.0117 56.7725C47.2579 57.2083 46.3488 57.706 45.2842 58.2657C44.2243 58.83 43.0775 59.3529 41.844 59.8346C40.6105 60.3163 39.3084 60.7636 37.9378 61.1765C36.5672 61.5893 35.2423 61.9105 33.963 62.1398C32.6838 62.3692 31.2333 62.5642 29.6114 62.7247L27.1785 62.9656V63H22.7241V62.9656L22.1416 62.9312C21.7533 62.9083 21.4334 62.8853 21.1821 62.8624C20.9309 62.8395 19.9829 62.7133 18.3381 62.4839C16.6934 62.2546 15.4028 62.0251 14.4662 61.7958C13.5297 61.5664 12.1362 61.1306 10.2858 60.4883C8.43553 59.8461 6.85248 59.1969 5.5367 58.541C4.22551 57.8895 3.40315 57.4766 3.06961 57.3023C2.74067 57.1326 2.3706 56.9216 1.95942 56.6693L1.34265 56.2908L1.32901 56.2701L1.30839 56.2564L1.28783 56.2426L1.27412 56.222L1.20559 56.1876L1.13706 56.1532L1.12342 56.1325L1.1028 56.1188L1.08224 56.105L1.06853 56.0844L1.05489 56.0637L1.03427 56.0499H1V55.9123L1.06853 55.9261L1.13706 55.9467L1.44545 55.9811C1.65104 56.004 2.21072 56.0385 3.12444 56.0844C4.03822 56.1302 5.00902 56.1302 6.03697 56.0844C7.06492 56.0385 8.11577 55.9352 9.18936 55.7747C10.263 55.6142 11.5308 55.3389 12.9928 54.9489C14.4548 54.559 15.798 54.0957 17.0224 53.5589C18.2423 53.0177 19.1103 52.6139 19.6266 52.3478C20.1382 52.0863 20.9195 51.6001 21.9702 50.889L23.5464 49.8224L23.5601 49.8018L23.5807 49.788L23.6013 49.7742L23.615 49.7536L23.6287 49.733L23.6492 49.7192L23.6699 49.7054L23.6835 49.6848L23.752 49.6642L23.8206 49.6504L23.8343 49.5816L23.8548 49.5128L23.8755 49.499L23.8891 49.4784L23.3408 49.444C22.9754 49.421 22.6213 49.3981 22.2786 49.3751C21.936 49.3522 21.3992 49.249 20.6682 49.0655C19.9372 48.882 19.1491 48.6067 18.3039 48.2397C17.4587 47.8728 16.6363 47.4369 15.8368 46.9323C15.0373 46.4277 14.4593 46.0079 14.103 45.673C13.7512 45.3427 13.2943 44.8748 12.7324 44.2693C12.175 43.6592 11.6907 43.0329 11.2795 42.3907C10.8684 41.7485 10.4755 41.0075 10.1009 40.168L9.53201 38.9156L9.49775 38.8124L9.46348 38.7092L9.44292 38.6404L9.42922 38.5716L9.53201 38.5854L9.63481 38.606L10.3886 38.7092C10.8912 38.778 11.6793 38.8009 12.7529 38.778C13.8266 38.7551 14.569 38.7092 14.9802 38.6404C15.3913 38.5716 15.6426 38.5257 15.734 38.5028L15.8711 38.4684L16.0424 38.434L16.2137 38.3996L16.2274 38.3789L16.248 38.3651L16.2686 38.3514L16.2822 38.3307L16.1452 38.2963L16.0081 38.2619L15.8711 38.2275L15.734 38.1931L15.5969 38.1587C15.5056 38.1358 15.3457 38.0899 15.1172 38.0211C14.8888 37.9523 14.272 37.6999 13.2669 37.2642C12.2618 36.8284 11.4623 36.404 10.8684 35.9911C10.2729 35.577 9.70519 35.1242 9.1688 34.6355C8.63427 34.1401 8.04724 33.5024 7.40757 32.7225C6.76798 31.9427 6.19692 31.0366 5.69432 30.0044C5.19179 28.9723 4.81487 27.986 4.56357 27.0455C4.31328 26.1106 4.14815 25.1547 4.07022 24.1898L3.9468 22.7447L4.01533 22.7585L4.08386 22.7791L4.15239 22.8135L4.22092 22.8479L4.28945 22.8824L4.35798 22.9168L5.4202 23.3984C6.12839 23.7196 7.00784 23.9948 8.05861 24.2242C9.10945 24.4535 9.7376 24.5797 9.94319 24.6027L10.2516 24.6371H10.8684L10.8547 24.6164L10.8341 24.6027L10.8135 24.5889L10.7998 24.5683L10.7862 24.5476L10.7656 24.5339L10.745 24.5201L10.7313 24.4994L10.6628 24.465L10.5942 24.4306L10.5806 24.41L10.56 24.3962L10.5394 24.3825L10.5257 24.3618L10.4572 24.3274L10.3886 24.293L10.375 24.2724C10.3613 24.2631 10.1648 24.1164 9.78557 23.832C9.41092 23.543 9.01803 23.1691 8.60685 22.7103C8.19567 22.2515 7.78449 21.7699 7.37331 21.2653C6.96137 20.7595 6.59447 20.2184 6.27683 19.6482C5.95706 19.0748 5.61894 18.3453 5.26258 17.4599C4.91081 16.5791 4.64355 15.6915 4.46078 14.7969C4.27807 13.9023 4.17528 13.0193 4.15239 12.1476C4.12957 11.276 4.15239 10.5305 4.22092 9.91121C4.28945 9.2919 4.42651 8.59228 4.6321 7.81243C4.83769 7.03258 5.1347 6.20683 5.52299 5.33518L6.1055 4.02775L6.13977 3.92453L6.17403 3.82131L6.19466 3.80755L6.2083 3.7869L6.222 3.76626L6.24256 3.7525L6.26319 3.76626L6.27683 3.7869L6.29053 3.80755L6.31109 3.82131L6.33172 3.83507L6.34536 3.85572L6.35906 3.87636L6.37962 3.89012L6.41389 3.95893L6.44815 4.02775L6.46878 4.04151L6.48242 4.06215L7.40757 5.09434C8.02435 5.78246 8.75536 6.55089 9.60054 7.39956C10.4458 8.24822 10.9141 8.68862 11.0054 8.72075C11.0968 8.75743 11.211 8.86292 11.3481 9.03729C11.4851 9.20705 11.942 9.61305 12.7187 10.2553C13.4954 10.8975 14.5119 11.643 15.7683 12.4917C17.0247 13.3403 18.4181 14.1776 19.9486 15.0033C21.4792 15.8291 23.1239 16.5745 24.8828 17.2397C26.6417 17.9049 27.8753 18.3407 28.5834 18.5472C29.2916 18.7536 30.5023 19.0174 32.2155 19.3385C33.9288 19.6597 35.2195 19.8661 36.0875 19.9578C36.9555 20.0496 37.5495 20.1023 37.8693 20.1161L38.349 20.1299L38.3353 20.0266L38.3147 19.9234L38.1776 19.0633C38.0863 18.4898 38.0406 17.687 38.0406 16.6548C38.0406 15.6226 38.1206 14.6708 38.2804 13.7991C38.4404 12.9275 38.6802 12.0444 39 11.1498C39.3198 10.2553 39.6328 9.53728 39.9389 8.996C40.2496 8.45927 40.6562 7.84684 41.1587 7.15871C41.6613 6.47059 42.3123 5.75955 43.1118 5.02553C43.9114 4.2915 44.8251 3.63779 45.853 3.06437C46.881 2.49096 47.829 2.0551 48.697 1.75694C49.5651 1.45877 50.2961 1.26376 50.89 1.17203C51.4839 1.0803 51.7809 1.02752 51.7809 1.01376V1.01376Z" fill="#19173E" stroke="#19173E" stroke-width="1.12646"/>
</svg>
