<svg width="20" height="20" viewBox="0 0 20 20" fill="none" xmlns="http://www.w3.org/2000/svg">
<path d="M10 5.83333C12.3 5.83333 14.1667 7.7 14.1667 10C14.1667 10.5417 14.0583 11.05 13.8667 11.525L16.3 13.9583C17.5583 12.9083 18.55 11.55 19.1583 10C17.7167 6.34167 14.1583 3.75 9.99166 3.75C8.825 3.75 7.70833 3.95833 6.675 4.33333L8.475 6.13333C8.95 5.94167 9.45833 5.83333 10 5.83333ZM1.66666 3.55833L3.56666 5.45833L3.94999 5.84167C2.56666 6.91667 1.48333 8.35 0.833328 10C2.27499 13.6583 5.83333 16.25 10 16.25C11.2917 16.25 12.525 16 13.65 15.55L14 15.9L16.4417 18.3333L17.5 17.275L2.725 2.5L1.66666 3.55833ZM6.275 8.16667L7.56666 9.45833C7.525 9.63334 7.5 9.81667 7.5 10C7.5 11.3833 8.61666 12.5 10 12.5C10.1833 12.5 10.3667 12.475 10.5417 12.4333L11.8333 13.725C11.275 14 10.6583 14.1667 10 14.1667C7.7 14.1667 5.83333 12.3 5.83333 10C5.83333 9.34167 6 8.725 6.275 8.16667ZM9.86666 7.51667L12.4917 10.1417L12.5083 10.0083C12.5083 8.625 11.3917 7.50833 10.0083 7.50833L9.86666 7.51667Z" fill="white"/>
</svg>
