<svg width="30" height="30" viewBox="0 0 30 30" fill="none" xmlns="http://www.w3.org/2000/svg">
<circle opacity="0.8" cx="15" cy="15" r="15" fill="url(#paint0_linear)"/>
<path d="M15 8.75C10.8333 8.75 7.27499 11.3417 5.83333 15C7.27499 18.6583 10.8333 21.25 15 21.25C19.1667 21.25 22.725 18.6583 24.1667 15C22.725 11.3417 19.1667 8.75 15 8.75ZM15 19.1667C12.7 19.1667 10.8333 17.3 10.8333 15C10.8333 12.7 12.7 10.8333 15 10.8333C17.3 10.8333 19.1667 12.7 19.1667 15C19.1667 17.3 17.3 19.1667 15 19.1667ZM15 12.5C13.6167 12.5 12.5 13.6167 12.5 15C12.5 16.3833 13.6167 17.5 15 17.5C16.3833 17.5 17.5 16.3833 17.5 15C17.5 13.6167 16.3833 12.5 15 12.5Z" fill="white"/>
<defs>
<linearGradient id="paint0_linear" x1="6.57189" y1="-13.1817" x2="-19.7916" y2="26.4015" gradientUnits="userSpaceOnUse">
<stop stop-color="#16B4EB"/>
<stop offset="1" stop-color="#23E73C"/>
</linearGradient>
</defs>
</svg>
