<svg width="30" height="30" viewBox="0 0 30 30" fill="none" xmlns="http://www.w3.org/2000/svg">
<circle opacity="0.8" cx="15" cy="15" r="15" fill="url(#paint0_linear)"/>
<path d="M15 10.8333C17.3 10.8333 19.1667 12.7 19.1667 15C19.1667 15.5417 19.0583 16.05 18.8667 16.525L21.3 18.9583C22.5583 17.9083 23.55 16.55 24.1583 15C22.7167 11.3417 19.1583 8.75 14.9917 8.75C13.825 8.75 12.7083 8.95833 11.675 9.33333L13.475 11.1333C13.95 10.9417 14.4583 10.8333 15 10.8333ZM6.66666 8.55833L8.56666 10.4583L8.94999 10.8417C7.56666 11.9167 6.48333 13.35 5.83333 15C7.27499 18.6583 10.8333 21.25 15 21.25C16.2917 21.25 17.525 21 18.65 20.55L19 20.9L21.4417 23.3333L22.5 22.275L7.725 7.5L6.66666 8.55833ZM11.275 13.1667L12.5667 14.4583C12.525 14.6333 12.5 14.8167 12.5 15C12.5 16.3833 13.6167 17.5 15 17.5C15.1833 17.5 15.3667 17.475 15.5417 17.4333L16.8333 18.725C16.275 19 15.6583 19.1667 15 19.1667C12.7 19.1667 10.8333 17.3 10.8333 15C10.8333 14.3417 11 13.725 11.275 13.1667ZM14.8667 12.5167L17.4917 15.1417L17.5083 15.0083C17.5083 13.625 16.3917 12.5083 15.0083 12.5083L14.8667 12.5167Z" fill="white"/>
<defs>
<linearGradient id="paint0_linear" x1="-11.6299" y1="15.8341" x2="13.6658" y2="42.6478" gradientUnits="userSpaceOnUse">
<stop stop-color="#FF409A"/>
<stop offset="1" stop-color="#C438EF"/>
</linearGradient>
</defs>
</svg>
